<svg width="34" height="34" viewBox="0 0 34 34" fill="none" xmlns="http://www.w3.org/2000/svg">
<path d="M19.592 26.9167C19.3804 26.9174 19.1713 26.8707 18.9801 26.78C18.7888 26.6892 18.6204 26.5568 18.487 26.3925L11.6445 17.8925C11.4362 17.639 11.3223 17.321 11.3223 16.9929C11.3223 16.6648 11.4362 16.3468 11.6445 16.0933L18.7279 7.59332C18.9683 7.30401 19.3139 7.12208 19.6885 7.08754C20.0631 7.053 20.4361 7.16869 20.7254 7.40915C21.0147 7.64961 21.1966 7.99515 21.2311 8.36976C21.2657 8.74436 21.15 9.11734 20.9095 9.40665L14.577 17L20.697 24.5933C20.8703 24.8013 20.9803 25.0545 21.0141 25.323C21.048 25.5915 21.0042 25.8641 20.8879 26.1085C20.7717 26.353 20.5879 26.559 20.3582 26.7022C20.1285 26.8454 19.8627 26.9198 19.592 26.9167Z" fill="white"/>
</svg>
